G04 Layer: TopSilkLayer*
G04 EasyEDA v6.1.34, Sun, 05 May 2019 19:16:01 GMT*
G04 77ecd07a251a4821b54f13b313e443d2,d2a06957bfed4711b46dd7a2d4eaa8b9,10*
G04 Gerber Generator version 0.2*
G04 Scale: 100 percent, Rotated: No, Reflected: No *
G04 Dimensions in millimeters *
G04 leading zeros omitted , absolute positions ,3 integer and 3 decimal *
%FSLAX33Y33*%
%MOMM*%
G90*
G71D02*

%ADD10C,0.254000*%
%ADD14C,1.499997*%
%ADD21C,0.228600*%
%ADD22C,0.200660*%
%ADD23C,0.203200*%
%ADD24C,0.202999*%
%ADD25C,0.599999*%
%ADD26C,0.299999*%
%ADD27C,0.152400*%

%LPD*%
G54D10*
G01X71096Y40944D02*
G01X135104Y40944D01*
G01X135104Y40944D02*
G01X135104Y14935D01*
G01X135104Y14935D02*
G01X71096Y14935D01*
G01X71096Y14935D02*
G01X71096Y40944D01*
G01X136095Y40944D02*
G01X200103Y40944D01*
G01X200103Y40944D02*
G01X200103Y14935D01*
G01X200103Y14935D02*
G01X136095Y14935D01*
G01X136095Y14935D02*
G01X136095Y40944D01*
G01X6096Y40944D02*
G01X70104Y40944D01*
G01X70104Y40944D02*
G01X70104Y14935D01*
G01X70104Y14935D02*
G01X6096Y14935D01*
G01X6096Y14935D02*
G01X6096Y40944D01*
G54D21*
G01X80759Y10480D02*
G01X60439Y10480D01*
G01X60439Y5400D01*
G01X80759Y5400D01*
G01X80759Y10480D01*
G01X210760Y10480D02*
G01X190440Y10480D01*
G01X190440Y5400D01*
G01X210760Y5400D01*
G01X210760Y10480D01*
G54D10*
G01X201095Y40944D02*
G01X265103Y40944D01*
G01X265103Y40944D02*
G01X265103Y14935D01*
G01X265103Y14935D02*
G01X201095Y14935D01*
G01X201095Y14935D02*
G01X201095Y40944D01*
G01X89337Y5399D02*
G01X89337Y10479D01*
G01X89337Y10479D02*
G01X90099Y10479D01*
G01X90099Y10479D02*
G01X90861Y10479D01*
G01X90861Y10479D02*
G01X90861Y5399D01*
G01X90861Y5399D02*
G01X90099Y5399D01*
G01X90099Y5399D02*
G01X89337Y5399D01*
G01X90099Y10479D02*
G01X90099Y10733D01*
G01X90099Y5399D02*
G01X90099Y5145D01*
G01X86338Y5399D02*
G01X86338Y10479D01*
G01X86338Y10479D02*
G01X87100Y10479D01*
G01X87100Y10479D02*
G01X87862Y10479D01*
G01X87862Y10479D02*
G01X87862Y5399D01*
G01X87862Y5399D02*
G01X87100Y5399D01*
G01X87100Y5399D02*
G01X86338Y5399D01*
G01X87100Y10479D02*
G01X87100Y10733D01*
G01X87100Y5399D02*
G01X87100Y5145D01*
G01X83338Y5399D02*
G01X83338Y10479D01*
G01X83338Y10479D02*
G01X84100Y10479D01*
G01X84100Y10479D02*
G01X84862Y10479D01*
G01X84862Y10479D02*
G01X84862Y5399D01*
G01X84862Y5399D02*
G01X84100Y5399D01*
G01X84100Y5399D02*
G01X83338Y5399D01*
G01X84100Y10479D02*
G01X84100Y10733D01*
G01X84100Y5399D02*
G01X84100Y5145D01*
G01X104337Y5399D02*
G01X104337Y10479D01*
G01X104337Y10479D02*
G01X105099Y10479D01*
G01X105099Y10479D02*
G01X105861Y10479D01*
G01X105861Y10479D02*
G01X105861Y5399D01*
G01X105861Y5399D02*
G01X105099Y5399D01*
G01X105099Y5399D02*
G01X104337Y5399D01*
G01X105099Y10479D02*
G01X105099Y10733D01*
G01X105099Y5399D02*
G01X105099Y5145D01*
G01X101337Y5399D02*
G01X101337Y10479D01*
G01X101337Y10479D02*
G01X102099Y10479D01*
G01X102099Y10479D02*
G01X102861Y10479D01*
G01X102861Y10479D02*
G01X102861Y5399D01*
G01X102861Y5399D02*
G01X102099Y5399D01*
G01X102099Y5399D02*
G01X101337Y5399D01*
G01X102099Y10479D02*
G01X102099Y10733D01*
G01X102099Y5399D02*
G01X102099Y5145D01*
G01X98338Y5399D02*
G01X98338Y10479D01*
G01X98338Y10479D02*
G01X99100Y10479D01*
G01X99100Y10479D02*
G01X99862Y10479D01*
G01X99862Y10479D02*
G01X99862Y5399D01*
G01X99862Y5399D02*
G01X99100Y5399D01*
G01X99100Y5399D02*
G01X98338Y5399D01*
G01X99100Y10479D02*
G01X99100Y10733D01*
G01X99100Y5399D02*
G01X99100Y5145D01*
G01X95337Y5399D02*
G01X95337Y10479D01*
G01X95337Y10479D02*
G01X96099Y10479D01*
G01X96099Y10479D02*
G01X96861Y10479D01*
G01X96861Y10479D02*
G01X96861Y5399D01*
G01X96861Y5399D02*
G01X96099Y5399D01*
G01X96099Y5399D02*
G01X95337Y5399D01*
G01X96099Y10479D02*
G01X96099Y10733D01*
G01X96099Y5399D02*
G01X96099Y5145D01*
G01X92338Y5399D02*
G01X92338Y10479D01*
G01X92338Y10479D02*
G01X93100Y10479D01*
G01X93100Y10479D02*
G01X93862Y10479D01*
G01X93862Y10479D02*
G01X93862Y5399D01*
G01X93862Y5399D02*
G01X93100Y5399D01*
G01X93100Y5399D02*
G01X92338Y5399D01*
G01X93100Y10479D02*
G01X93100Y10733D01*
G01X93100Y5399D02*
G01X93100Y5145D01*
G01X153462Y7239D02*
G01X153462Y5223D01*
G01X118063Y5223D01*
G01X118063Y10524D01*
G01X153462Y10524D01*
G01X153462Y8509D01*
G01X160743Y4126D02*
G01X160743Y10425D01*
G01X156248Y4126D02*
G01X156248Y10425D01*
G54D22*
G01X162333Y8333D02*
G01X167413Y8333D01*
G01X167413Y10873D01*
G01X162333Y10873D01*
G01X162333Y8333D01*
G01X162333Y3494D02*
G01X167413Y3494D01*
G01X167413Y6034D01*
G01X162333Y6034D01*
G01X162333Y3494D01*
G54D10*
G01X110744Y5334D02*
G01X110744Y10414D01*
G01X110744Y10414D02*
G01X111506Y10414D01*
G01X111506Y10414D02*
G01X112268Y10414D01*
G01X112268Y10414D02*
G01X112268Y5334D01*
G01X112268Y5334D02*
G01X111506Y5334D01*
G01X111506Y5334D02*
G01X110744Y5334D01*
G01X111506Y10414D02*
G01X111506Y10668D01*
G01X111506Y5334D02*
G01X111506Y5080D01*
G54D23*
G01X174625Y6477D02*
G01X172720Y6477D01*
G01X172720Y3937D01*
G01X187960Y3937D01*
G01X187960Y6477D01*
G54D24*
G01X187960Y6477D02*
G01X174625Y6477D01*

%LPD*%
G36*
G01X264633Y6712D02*
G01X264574Y6718D01*
G01X264515Y6712D01*
G01X264460Y6695D01*
G01X264410Y6668D01*
G01X264366Y6631D01*
G01X264330Y6586D01*
G01X264302Y6531D01*
G01X264285Y6469D01*
G01X264279Y6400D01*
G01X264285Y6334D01*
G01X264302Y6275D01*
G01X264330Y6222D01*
G01X264366Y6177D01*
G01X264410Y6140D01*
G01X264460Y6113D01*
G01X264515Y6096D01*
G01X264574Y6090D01*
G01X264633Y6096D01*
G01X264688Y6113D01*
G01X264739Y6140D01*
G01X264783Y6177D01*
G01X264819Y6222D01*
G01X264847Y6275D01*
G01X264865Y6334D01*
G01X264871Y6400D01*
G01X264865Y6469D01*
G01X264847Y6531D01*
G01X264819Y6586D01*
G01X264783Y6631D01*
G01X264739Y6668D01*
G01X264688Y6695D01*
G01X264633Y6712D01*
G37*

%LPD*%
G36*
G01X262652Y9750D02*
G01X262602Y9751D01*
G01X262553Y9750D01*
G01X262504Y9746D01*
G01X262457Y9740D01*
G01X262410Y9733D01*
G01X262365Y9723D01*
G01X262320Y9710D01*
G01X262277Y9696D01*
G01X262234Y9679D01*
G01X262193Y9661D01*
G01X262152Y9639D01*
G01X262113Y9616D01*
G01X262075Y9590D01*
G01X262038Y9562D01*
G01X262002Y9532D01*
G01X261967Y9500D01*
G01X261933Y9465D01*
G01X261901Y9427D01*
G01X261869Y9388D01*
G01X261839Y9347D01*
G01X261811Y9303D01*
G01X261783Y9256D01*
G01X261757Y9208D01*
G01X261732Y9157D01*
G01X261708Y9104D01*
G01X261686Y9048D01*
G01X261665Y8991D01*
G01X261645Y8930D01*
G01X261627Y8868D01*
G01X261609Y8803D01*
G01X261594Y8736D01*
G01X261579Y8666D01*
G01X261567Y8594D01*
G01X261555Y8520D01*
G01X261546Y8443D01*
G01X261537Y8365D01*
G01X261530Y8283D01*
G01X261525Y8200D01*
G01X261521Y8114D01*
G01X261519Y8025D01*
G01X261518Y7934D01*
G01X261519Y7843D01*
G01X261521Y7754D01*
G01X261525Y7667D01*
G01X261530Y7583D01*
G01X261537Y7501D01*
G01X261546Y7421D01*
G01X261555Y7344D01*
G01X261567Y7268D01*
G01X261579Y7196D01*
G01X261594Y7126D01*
G01X261609Y7058D01*
G01X261627Y6992D01*
G01X261645Y6928D01*
G01X261665Y6867D01*
G01X261686Y6809D01*
G01X261708Y6752D01*
G01X261732Y6698D01*
G01X261757Y6646D01*
G01X261783Y6597D01*
G01X261811Y6550D01*
G01X261839Y6504D01*
G01X261869Y6462D01*
G01X261901Y6422D01*
G01X261933Y6384D01*
G01X261967Y6348D01*
G01X262002Y6315D01*
G01X262038Y6284D01*
G01X262075Y6256D01*
G01X262113Y6229D01*
G01X262152Y6205D01*
G01X262193Y6183D01*
G01X262234Y6164D01*
G01X262277Y6146D01*
G01X262320Y6132D01*
G01X262365Y6119D01*
G01X262410Y6109D01*
G01X262457Y6101D01*
G01X262504Y6095D01*
G01X262553Y6091D01*
G01X262602Y6090D01*
G01X262652Y6091D01*
G01X262700Y6095D01*
G01X262747Y6101D01*
G01X262793Y6109D01*
G01X262839Y6119D01*
G01X262883Y6132D01*
G01X262927Y6146D01*
G01X262969Y6164D01*
G01X263010Y6183D01*
G01X263051Y6205D01*
G01X263090Y6229D01*
G01X263127Y6256D01*
G01X263164Y6284D01*
G01X263200Y6315D01*
G01X263234Y6348D01*
G01X263268Y6384D01*
G01X263300Y6422D01*
G01X263331Y6462D01*
G01X263361Y6504D01*
G01X263389Y6550D01*
G01X263417Y6597D01*
G01X263443Y6646D01*
G01X263468Y6698D01*
G01X263491Y6752D01*
G01X263513Y6809D01*
G01X263534Y6867D01*
G01X263554Y6928D01*
G01X263572Y6992D01*
G01X263589Y7058D01*
G01X263604Y7126D01*
G01X263618Y7196D01*
G01X263631Y7268D01*
G01X263642Y7344D01*
G01X263652Y7421D01*
G01X263660Y7501D01*
G01X263667Y7583D01*
G01X263672Y7667D01*
G01X263676Y7754D01*
G01X263678Y7843D01*
G01X263679Y7934D01*
G01X263678Y8025D01*
G01X263676Y8113D01*
G01X263672Y8199D01*
G01X263667Y8282D01*
G01X263660Y8363D01*
G01X263652Y8442D01*
G01X263642Y8519D01*
G01X263631Y8592D01*
G01X263618Y8664D01*
G01X263604Y8734D01*
G01X263589Y8801D01*
G01X263572Y8866D01*
G01X263554Y8928D01*
G01X263534Y8988D01*
G01X263513Y9046D01*
G01X263491Y9101D01*
G01X263468Y9155D01*
G01X263443Y9205D01*
G01X263417Y9254D01*
G01X263389Y9300D01*
G01X263361Y9345D01*
G01X263331Y9386D01*
G01X263300Y9426D01*
G01X263268Y9463D01*
G01X263234Y9498D01*
G01X263200Y9531D01*
G01X263164Y9561D01*
G01X263127Y9589D01*
G01X263090Y9615D01*
G01X263051Y9639D01*
G01X263010Y9660D01*
G01X262969Y9679D01*
G01X262927Y9696D01*
G01X262883Y9710D01*
G01X262839Y9723D01*
G01X262793Y9733D01*
G01X262747Y9740D01*
G01X262700Y9746D01*
G01X262652Y9750D01*
G37*

%LPC*%
G36*
G01X262641Y9429D02*
G01X262602Y9431D01*
G01X262563Y9429D01*
G01X262525Y9425D01*
G01X262488Y9418D01*
G01X262452Y9409D01*
G01X262417Y9396D01*
G01X262382Y9381D01*
G01X262348Y9363D01*
G01X262316Y9342D01*
G01X262284Y9318D01*
G01X262253Y9292D01*
G01X262224Y9262D01*
G01X262196Y9230D01*
G01X262169Y9194D01*
G01X262142Y9156D01*
G01X262117Y9115D01*
G01X262093Y9070D01*
G01X262071Y9023D01*
G01X262050Y8972D01*
G01X262029Y8919D01*
G01X262011Y8862D01*
G01X261994Y8803D01*
G01X261978Y8740D01*
G01X261963Y8674D01*
G01X261950Y8605D01*
G01X261938Y8532D01*
G01X261928Y8456D01*
G01X261919Y8377D01*
G01X261912Y8296D01*
G01X261907Y8210D01*
G01X261902Y8121D01*
G01X261900Y8029D01*
G01X261899Y7934D01*
G01X261900Y7837D01*
G01X261902Y7744D01*
G01X261907Y7654D01*
G01X261912Y7567D01*
G01X261919Y7483D01*
G01X261928Y7403D01*
G01X261938Y7326D01*
G01X261950Y7253D01*
G01X261963Y7182D01*
G01X261978Y7115D01*
G01X261994Y7051D01*
G01X262011Y6990D01*
G01X262029Y6933D01*
G01X262050Y6878D01*
G01X262071Y6827D01*
G01X262093Y6778D01*
G01X262117Y6733D01*
G01X262142Y6691D01*
G01X262169Y6652D01*
G01X262196Y6615D01*
G01X262224Y6582D01*
G01X262253Y6552D01*
G01X262284Y6525D01*
G01X262316Y6501D01*
G01X262348Y6480D01*
G01X262382Y6461D01*
G01X262417Y6446D01*
G01X262452Y6433D01*
G01X262488Y6423D01*
G01X262525Y6416D01*
G01X262563Y6412D01*
G01X262602Y6410D01*
G01X262641Y6412D01*
G01X262679Y6416D01*
G01X262716Y6423D01*
G01X262752Y6433D01*
G01X262787Y6446D01*
G01X262821Y6461D01*
G01X262854Y6480D01*
G01X262887Y6501D01*
G01X262918Y6525D01*
G01X262948Y6552D01*
G01X262978Y6582D01*
G01X263006Y6615D01*
G01X263033Y6652D01*
G01X263059Y6691D01*
G01X263083Y6733D01*
G01X263107Y6778D01*
G01X263129Y6827D01*
G01X263150Y6878D01*
G01X263169Y6933D01*
G01X263188Y6990D01*
G01X263205Y7051D01*
G01X263221Y7115D01*
G01X263235Y7182D01*
G01X263248Y7253D01*
G01X263260Y7326D01*
G01X263270Y7403D01*
G01X263279Y7483D01*
G01X263286Y7567D01*
G01X263291Y7654D01*
G01X263295Y7744D01*
G01X263297Y7837D01*
G01X263298Y7934D01*
G01X263297Y8029D01*
G01X263295Y8121D01*
G01X263291Y8210D01*
G01X263286Y8296D01*
G01X263279Y8377D01*
G01X263270Y8456D01*
G01X263260Y8532D01*
G01X263248Y8605D01*
G01X263235Y8674D01*
G01X263221Y8740D01*
G01X263205Y8803D01*
G01X263188Y8862D01*
G01X263169Y8919D01*
G01X263150Y8972D01*
G01X263129Y9023D01*
G01X263107Y9070D01*
G01X263083Y9115D01*
G01X263059Y9156D01*
G01X263033Y9194D01*
G01X263006Y9230D01*
G01X262978Y9262D01*
G01X262948Y9292D01*
G01X262918Y9318D01*
G01X262887Y9342D01*
G01X262854Y9363D01*
G01X262821Y9381D01*
G01X262787Y9396D01*
G01X262752Y9409D01*
G01X262716Y9418D01*
G01X262679Y9425D01*
G01X262641Y9429D01*
G37*

%LPD*%
G36*
G01X254250Y8825D02*
G01X254167Y8829D01*
G01X254112Y8828D01*
G01X254058Y8824D01*
G01X254004Y8818D01*
G01X253951Y8810D01*
G01X253898Y8800D01*
G01X253846Y8787D01*
G01X253795Y8773D01*
G01X253744Y8755D01*
G01X253695Y8736D01*
G01X253646Y8715D01*
G01X253599Y8691D01*
G01X253552Y8666D01*
G01X253507Y8638D01*
G01X253463Y8608D01*
G01X253420Y8576D01*
G01X253379Y8542D01*
G01X253339Y8506D01*
G01X253300Y8468D01*
G01X253262Y8428D01*
G01X253227Y8386D01*
G01X253193Y8341D01*
G01X253161Y8295D01*
G01X253131Y8247D01*
G01X253102Y8197D01*
G01X253075Y8145D01*
G01X253051Y8091D01*
G01X253028Y8036D01*
G01X253008Y7978D01*
G01X252990Y7919D01*
G01X252973Y7857D01*
G01X252960Y7794D01*
G01X252948Y7729D01*
G01X252939Y7663D01*
G01X252933Y7594D01*
G01X252929Y7524D01*
G01X252928Y7452D01*
G01X252929Y7381D01*
G01X252932Y7312D01*
G01X252938Y7245D01*
G01X252946Y7179D01*
G01X252957Y7115D01*
G01X252970Y7053D01*
G01X252985Y6993D01*
G01X253001Y6934D01*
G01X253021Y6877D01*
G01X253041Y6822D01*
G01X253064Y6769D01*
G01X253089Y6717D01*
G01X253116Y6668D01*
G01X253145Y6620D01*
G01X253175Y6575D01*
G01X253207Y6531D01*
G01X253241Y6489D01*
G01X253276Y6449D01*
G01X253313Y6411D01*
G01X253352Y6375D01*
G01X253392Y6342D01*
G01X253433Y6310D01*
G01X253476Y6280D01*
G01X253520Y6252D01*
G01X253566Y6227D01*
G01X253612Y6204D01*
G01X253661Y6182D01*
G01X253710Y6163D01*
G01X253760Y6146D01*
G01X253812Y6132D01*
G01X253864Y6119D01*
G01X253917Y6109D01*
G01X253971Y6101D01*
G01X254026Y6095D01*
G01X254082Y6091D01*
G01X254139Y6090D01*
G01X254199Y6092D01*
G01X254257Y6097D01*
G01X254314Y6104D01*
G01X254372Y6113D01*
G01X254428Y6126D01*
G01X254483Y6141D01*
G01X254537Y6160D01*
G01X254591Y6180D01*
G01X254643Y6202D01*
G01X254694Y6228D01*
G01X254745Y6255D01*
G01X254794Y6284D01*
G01X254841Y6316D01*
G01X254888Y6350D01*
G01X254933Y6386D01*
G01X254977Y6423D01*
G01X254805Y6685D01*
G01X254762Y6649D01*
G01X254718Y6615D01*
G01X254671Y6583D01*
G01X254622Y6552D01*
G01X254572Y6524D01*
G01X254519Y6498D01*
G01X254465Y6476D01*
G01X254409Y6457D01*
G01X254352Y6441D01*
G01X254293Y6430D01*
G01X254233Y6423D01*
G01X254172Y6421D01*
G01X254119Y6422D01*
G01X254067Y6427D01*
G01X254016Y6435D01*
G01X253967Y6446D01*
G01X253920Y6459D01*
G01X253874Y6475D01*
G01X253829Y6495D01*
G01X253786Y6517D01*
G01X253744Y6542D01*
G01X253704Y6569D01*
G01X253666Y6599D01*
G01X253630Y6632D01*
G01X253596Y6668D01*
G01X253563Y6705D01*
G01X253533Y6745D01*
G01X253504Y6787D01*
G01X253477Y6831D01*
G01X253453Y6878D01*
G01X253431Y6927D01*
G01X253410Y6977D01*
G01X253392Y7030D01*
G01X253376Y7085D01*
G01X253363Y7142D01*
G01X253352Y7200D01*
G01X253343Y7261D01*
G01X253337Y7323D01*
G01X253333Y7386D01*
G01X253331Y7452D01*
G01X253333Y7518D01*
G01X253337Y7582D01*
G01X253344Y7645D01*
G01X253353Y7706D01*
G01X253365Y7765D01*
G01X253379Y7822D01*
G01X253396Y7878D01*
G01X253415Y7931D01*
G01X253436Y7982D01*
G01X253459Y8032D01*
G01X253485Y8079D01*
G01X253513Y8124D01*
G01X253542Y8167D01*
G01X253574Y8207D01*
G01X253607Y8245D01*
G01X253643Y8281D01*
G01X253680Y8314D01*
G01X253719Y8344D01*
G01X253759Y8372D01*
G01X253800Y8398D01*
G01X253844Y8420D01*
G01X253888Y8440D01*
G01X253934Y8457D01*
G01X253982Y8470D01*
G01X254030Y8482D01*
G01X254080Y8489D01*
G01X254131Y8494D01*
G01X254182Y8496D01*
G01X254261Y8491D01*
G01X254336Y8479D01*
G01X254407Y8458D01*
G01X254476Y8429D01*
G01X254541Y8394D01*
G01X254604Y8352D01*
G01X254664Y8305D01*
G01X254723Y8252D01*
G01X254929Y8514D01*
G01X254882Y8556D01*
G01X254833Y8596D01*
G01X254781Y8634D01*
G01X254726Y8671D01*
G01X254669Y8705D01*
G01X254608Y8735D01*
G01X254544Y8762D01*
G01X254477Y8785D01*
G01X254405Y8803D01*
G01X254330Y8817D01*
G01X254250Y8825D01*
G37*

%LPD*%
G36*
G01X251271Y8828D02*
G01X251218Y8829D01*
G01X251165Y8828D01*
G01X251113Y8824D01*
G01X251061Y8818D01*
G01X251009Y8810D01*
G01X250959Y8800D01*
G01X250908Y8787D01*
G01X250859Y8773D01*
G01X250810Y8755D01*
G01X250763Y8736D01*
G01X250715Y8715D01*
G01X250670Y8691D01*
G01X250625Y8666D01*
G01X250581Y8638D01*
G01X250538Y8608D01*
G01X250497Y8576D01*
G01X250457Y8542D01*
G01X250418Y8506D01*
G01X250381Y8468D01*
G01X250345Y8428D01*
G01X250311Y8386D01*
G01X250278Y8341D01*
G01X250247Y8295D01*
G01X250218Y8247D01*
G01X250191Y8197D01*
G01X250165Y8145D01*
G01X250141Y8091D01*
G01X250119Y8036D01*
G01X250100Y7978D01*
G01X250082Y7919D01*
G01X250066Y7857D01*
G01X250053Y7794D01*
G01X250042Y7729D01*
G01X250033Y7663D01*
G01X250027Y7594D01*
G01X250023Y7524D01*
G01X250022Y7452D01*
G01X250023Y7381D01*
G01X250027Y7312D01*
G01X250033Y7245D01*
G01X250042Y7179D01*
G01X250053Y7115D01*
G01X250066Y7053D01*
G01X250082Y6993D01*
G01X250100Y6934D01*
G01X250119Y6877D01*
G01X250141Y6822D01*
G01X250165Y6769D01*
G01X250191Y6717D01*
G01X250218Y6668D01*
G01X250247Y6620D01*
G01X250278Y6575D01*
G01X250311Y6531D01*
G01X250345Y6489D01*
G01X250381Y6449D01*
G01X250418Y6411D01*
G01X250457Y6375D01*
G01X250497Y6342D01*
G01X250538Y6310D01*
G01X250581Y6280D01*
G01X250625Y6252D01*
G01X250670Y6227D01*
G01X250715Y6204D01*
G01X250763Y6182D01*
G01X250810Y6163D01*
G01X250859Y6146D01*
G01X250908Y6132D01*
G01X250959Y6119D01*
G01X251009Y6109D01*
G01X251061Y6101D01*
G01X251113Y6095D01*
G01X251165Y6091D01*
G01X251218Y6090D01*
G01X251271Y6091D01*
G01X251324Y6095D01*
G01X251376Y6101D01*
G01X251427Y6109D01*
G01X251478Y6119D01*
G01X251529Y6132D01*
G01X251578Y6146D01*
G01X251627Y6163D01*
G01X251675Y6182D01*
G01X251722Y6204D01*
G01X251768Y6227D01*
G01X251813Y6252D01*
G01X251857Y6280D01*
G01X251900Y6310D01*
G01X251941Y6342D01*
G01X251982Y6375D01*
G01X252020Y6411D01*
G01X252058Y6449D01*
G01X252094Y6489D01*
G01X252129Y6531D01*
G01X252162Y6575D01*
G01X252193Y6620D01*
G01X252222Y6668D01*
G01X252250Y6717D01*
G01X252276Y6769D01*
G01X252300Y6822D01*
G01X252322Y6877D01*
G01X252341Y6934D01*
G01X252359Y6993D01*
G01X252375Y7053D01*
G01X252388Y7115D01*
G01X252399Y7179D01*
G01X252408Y7245D01*
G01X252415Y7312D01*
G01X252418Y7381D01*
G01X252420Y7452D01*
G01X252418Y7524D01*
G01X252415Y7594D01*
G01X252408Y7663D01*
G01X252399Y7729D01*
G01X252388Y7794D01*
G01X252375Y7857D01*
G01X252359Y7919D01*
G01X252341Y7978D01*
G01X252322Y8036D01*
G01X252300Y8091D01*
G01X252276Y8145D01*
G01X252250Y8197D01*
G01X252222Y8247D01*
G01X252193Y8295D01*
G01X252162Y8341D01*
G01X252129Y8386D01*
G01X252094Y8428D01*
G01X252058Y8468D01*
G01X252020Y8506D01*
G01X251982Y8542D01*
G01X251941Y8576D01*
G01X251900Y8608D01*
G01X251857Y8638D01*
G01X251813Y8666D01*
G01X251768Y8691D01*
G01X251722Y8715D01*
G01X251675Y8736D01*
G01X251627Y8755D01*
G01X251578Y8773D01*
G01X251529Y8787D01*
G01X251478Y8800D01*
G01X251427Y8810D01*
G01X251376Y8818D01*
G01X251324Y8824D01*
G01X251271Y8828D01*
G37*

%LPC*%
G36*
G01X251276Y8494D02*
G01X251218Y8496D01*
G01X251161Y8494D01*
G01X251104Y8487D01*
G01X251050Y8476D01*
G01X250997Y8462D01*
G01X250946Y8443D01*
G01X250898Y8420D01*
G01X250850Y8394D01*
G01X250806Y8363D01*
G01X250763Y8330D01*
G01X250722Y8292D01*
G01X250684Y8251D01*
G01X250648Y8207D01*
G01X250614Y8160D01*
G01X250583Y8109D01*
G01X250555Y8056D01*
G01X250529Y7999D01*
G01X250506Y7940D01*
G01X250486Y7878D01*
G01X250469Y7813D01*
G01X250454Y7745D01*
G01X250443Y7675D01*
G01X250435Y7603D01*
G01X250430Y7529D01*
G01X250428Y7452D01*
G01X250430Y7376D01*
G01X250435Y7302D01*
G01X250443Y7230D01*
G01X250454Y7161D01*
G01X250469Y7094D01*
G01X250486Y7030D01*
G01X250506Y6969D01*
G01X250529Y6910D01*
G01X250555Y6854D01*
G01X250583Y6802D01*
G01X250614Y6751D01*
G01X250648Y6705D01*
G01X250684Y6661D01*
G01X250722Y6621D01*
G01X250763Y6584D01*
G01X250806Y6551D01*
G01X250850Y6521D01*
G01X250898Y6495D01*
G01X250946Y6472D01*
G01X250997Y6454D01*
G01X251050Y6439D01*
G01X251104Y6429D01*
G01X251161Y6423D01*
G01X251218Y6421D01*
G01X251276Y6423D01*
G01X251333Y6429D01*
G01X251387Y6439D01*
G01X251440Y6454D01*
G01X251492Y6472D01*
G01X251541Y6495D01*
G01X251589Y6521D01*
G01X251634Y6551D01*
G01X251677Y6584D01*
G01X251718Y6621D01*
G01X251757Y6661D01*
G01X251793Y6705D01*
G01X251827Y6751D01*
G01X251858Y6802D01*
G01X251887Y6854D01*
G01X251914Y6910D01*
G01X251937Y6969D01*
G01X251957Y7030D01*
G01X251975Y7094D01*
G01X251989Y7161D01*
G01X252001Y7230D01*
G01X252009Y7302D01*
G01X252014Y7376D01*
G01X252016Y7452D01*
G01X252014Y7529D01*
G01X252009Y7603D01*
G01X252001Y7675D01*
G01X251989Y7745D01*
G01X251975Y7813D01*
G01X251957Y7878D01*
G01X251937Y7940D01*
G01X251914Y7999D01*
G01X251887Y8056D01*
G01X251858Y8109D01*
G01X251827Y8160D01*
G01X251793Y8207D01*
G01X251757Y8251D01*
G01X251718Y8292D01*
G01X251677Y8330D01*
G01X251634Y8363D01*
G01X251589Y8394D01*
G01X251541Y8420D01*
G01X251492Y8443D01*
G01X251440Y8462D01*
G01X251387Y8476D01*
G01X251333Y8487D01*
G01X251276Y8494D01*
G37*

%LPD*%
G36*
G01X249270Y9994D02*
G01X248879Y9994D01*
G01X248879Y6631D01*
G01X248881Y6548D01*
G01X248890Y6470D01*
G01X248903Y6400D01*
G01X248922Y6336D01*
G01X248947Y6280D01*
G01X248978Y6231D01*
G01X249016Y6188D01*
G01X249060Y6153D01*
G01X249111Y6126D01*
G01X249167Y6106D01*
G01X249232Y6094D01*
G01X249303Y6090D01*
G01X249378Y6093D01*
G01X249439Y6101D01*
G01X249492Y6112D01*
G01X249539Y6126D01*
G01X249481Y6428D01*
G01X249450Y6424D01*
G01X249426Y6422D01*
G01X249408Y6421D01*
G01X249389Y6421D01*
G01X249343Y6431D01*
G01X249305Y6462D01*
G01X249279Y6519D01*
G01X249270Y6604D01*
G01X249270Y9994D01*
G37*

%LPD*%
G36*
G01X247274Y9748D02*
G01X247195Y9751D01*
G01X247139Y9750D01*
G01X247085Y9747D01*
G01X247030Y9742D01*
G01X246976Y9736D01*
G01X246924Y9728D01*
G01X246872Y9719D01*
G01X246820Y9707D01*
G01X246770Y9694D01*
G01X246720Y9679D01*
G01X246671Y9662D01*
G01X246623Y9644D01*
G01X246576Y9624D01*
G01X246529Y9603D01*
G01X246484Y9579D01*
G01X246439Y9554D01*
G01X246396Y9528D01*
G01X246353Y9500D01*
G01X246312Y9471D01*
G01X246271Y9439D01*
G01X246232Y9407D01*
G01X246194Y9373D01*
G01X246156Y9337D01*
G01X246120Y9299D01*
G01X246085Y9261D01*
G01X246051Y9220D01*
G01X246018Y9179D01*
G01X245987Y9135D01*
G01X245957Y9091D01*
G01X245928Y9045D01*
G01X245900Y8998D01*
G01X245874Y8949D01*
G01X245849Y8899D01*
G01X245825Y8847D01*
G01X245802Y8794D01*
G01X245782Y8740D01*
G01X245762Y8684D01*
G01X245743Y8627D01*
G01X245727Y8569D01*
G01X245712Y8510D01*
G01X245698Y8449D01*
G01X245686Y8387D01*
G01X245675Y8324D01*
G01X245666Y8260D01*
G01X245659Y8194D01*
G01X245653Y8127D01*
G01X245649Y8059D01*
G01X245646Y7990D01*
G01X245645Y7919D01*
G01X245646Y7849D01*
G01X245649Y7779D01*
G01X245653Y7710D01*
G01X245659Y7643D01*
G01X245666Y7577D01*
G01X245675Y7512D01*
G01X245685Y7449D01*
G01X245697Y7387D01*
G01X245711Y7326D01*
G01X245726Y7266D01*
G01X245742Y7208D01*
G01X245760Y7151D01*
G01X245779Y7096D01*
G01X245800Y7041D01*
G01X245822Y6989D01*
G01X245845Y6937D01*
G01X245869Y6887D01*
G01X245896Y6838D01*
G01X245923Y6791D01*
G01X245951Y6745D01*
G01X245981Y6701D01*
G01X246012Y6658D01*
G01X246044Y6616D01*
G01X246077Y6576D01*
G01X246112Y6537D01*
G01X246147Y6500D01*
G01X246184Y6465D01*
G01X246222Y6431D01*
G01X246260Y6399D01*
G01X246300Y6368D01*
G01X246340Y6338D01*
G01X246382Y6310D01*
G01X246425Y6284D01*
G01X246468Y6260D01*
G01X246513Y6237D01*
G01X246558Y6215D01*
G01X246605Y6196D01*
G01X246652Y6178D01*
G01X246700Y6161D01*
G01X246748Y6146D01*
G01X246848Y6122D01*
G01X246899Y6112D01*
G01X246951Y6105D01*
G01X247003Y6099D01*
G01X247056Y6094D01*
G01X247110Y6091D01*
G01X247164Y6090D01*
G01X247232Y6092D01*
G01X247299Y6096D01*
G01X247363Y6103D01*
G01X247426Y6112D01*
G01X247488Y6124D01*
G01X247548Y6139D01*
G01X247606Y6156D01*
G01X247663Y6176D01*
G01X247719Y6198D01*
G01X247772Y6223D01*
G01X247825Y6249D01*
G01X247876Y6279D01*
G01X247926Y6311D01*
G01X247975Y6345D01*
G01X248022Y6382D01*
G01X248068Y6421D01*
G01X248113Y6462D01*
G01X248157Y6505D01*
G01X248200Y6551D01*
G01X248241Y6598D01*
G01X248020Y6850D01*
G01X247976Y6802D01*
G01X247931Y6757D01*
G01X247886Y6715D01*
G01X247839Y6676D01*
G01X247792Y6640D01*
G01X247743Y6607D01*
G01X247694Y6576D01*
G01X247643Y6549D01*
G01X247592Y6524D01*
G01X247538Y6503D01*
G01X247483Y6485D01*
G01X247427Y6470D01*
G01X247369Y6459D01*
G01X247310Y6450D01*
G01X247248Y6445D01*
G01X247185Y6443D01*
G01X247127Y6445D01*
G01X247071Y6449D01*
G01X247016Y6455D01*
G01X246963Y6464D01*
G01X246910Y6476D01*
G01X246859Y6490D01*
G01X246810Y6507D01*
G01X246762Y6526D01*
G01X246714Y6548D01*
G01X246669Y6571D01*
G01X246625Y6597D01*
G01X246582Y6626D01*
G01X246541Y6657D01*
G01X246501Y6690D01*
G01X246463Y6725D01*
G01X246427Y6763D01*
G01X246392Y6803D01*
G01X246359Y6844D01*
G01X246327Y6888D01*
G01X246297Y6935D01*
G01X246268Y6982D01*
G01X246241Y7033D01*
G01X246216Y7085D01*
G01X246193Y7139D01*
G01X246171Y7195D01*
G01X246151Y7253D01*
G01X246133Y7313D01*
G01X246117Y7374D01*
G01X246102Y7438D01*
G01X246090Y7503D01*
G01X246079Y7570D01*
G01X246070Y7638D01*
G01X246064Y7708D01*
G01X246058Y7781D01*
G01X246055Y7854D01*
G01X246054Y7929D01*
G01X246055Y8004D01*
G01X246058Y8077D01*
G01X246064Y8149D01*
G01X246071Y8218D01*
G01X246080Y8287D01*
G01X246091Y8353D01*
G01X246104Y8418D01*
G01X246119Y8481D01*
G01X246136Y8542D01*
G01X246155Y8600D01*
G01X246175Y8658D01*
G01X246198Y8713D01*
G01X246222Y8767D01*
G01X246248Y8818D01*
G01X246275Y8867D01*
G01X246305Y8915D01*
G01X246335Y8960D01*
G01X246368Y9003D01*
G01X246402Y9045D01*
G01X246438Y9084D01*
G01X246475Y9121D01*
G01X246514Y9156D01*
G01X246554Y9188D01*
G01X246596Y9218D01*
G01X246639Y9247D01*
G01X246684Y9272D01*
G01X246730Y9295D01*
G01X246777Y9317D01*
G01X246826Y9336D01*
G01X246875Y9352D01*
G01X246926Y9365D01*
G01X246978Y9377D01*
G01X247032Y9386D01*
G01X247087Y9392D01*
G01X247143Y9396D01*
G01X247200Y9398D01*
G01X247276Y9395D01*
G01X247348Y9387D01*
G01X247418Y9373D01*
G01X247485Y9355D01*
G01X247550Y9332D01*
G01X247612Y9305D01*
G01X247672Y9273D01*
G01X247729Y9237D01*
G01X247783Y9198D01*
G01X247835Y9155D01*
G01X247885Y9109D01*
G01X247931Y9060D01*
G01X248155Y9319D01*
G01X248115Y9360D01*
G01X248073Y9402D01*
G01X248027Y9442D01*
G01X247980Y9480D01*
G01X247929Y9518D01*
G01X247875Y9553D01*
G01X247819Y9587D01*
G01X247760Y9618D01*
G01X247698Y9647D01*
G01X247634Y9673D01*
G01X247567Y9695D01*
G01X247498Y9714D01*
G01X247425Y9730D01*
G01X247351Y9741D01*
G01X247274Y9748D01*
G37*

%LPD*%
G36*
G01X235143Y9687D02*
G01X234744Y9687D01*
G01X234744Y7586D01*
G01X234745Y7504D01*
G01X234748Y7423D01*
G01X234753Y7346D01*
G01X234760Y7272D01*
G01X234769Y7200D01*
G01X234780Y7131D01*
G01X234793Y7064D01*
G01X234807Y7000D01*
G01X234823Y6938D01*
G01X234841Y6879D01*
G01X234861Y6822D01*
G01X234882Y6768D01*
G01X234905Y6716D01*
G01X234930Y6667D01*
G01X234956Y6620D01*
G01X234983Y6575D01*
G01X235012Y6532D01*
G01X235042Y6492D01*
G01X235074Y6454D01*
G01X235107Y6418D01*
G01X235142Y6384D01*
G01X235178Y6352D01*
G01X235215Y6322D01*
G01X235253Y6294D01*
G01X235292Y6268D01*
G01X235333Y6244D01*
G01X235374Y6221D01*
G01X235416Y6201D01*
G01X235460Y6183D01*
G01X235505Y6166D01*
G01X235550Y6151D01*
G01X235596Y6138D01*
G01X235643Y6126D01*
G01X235691Y6117D01*
G01X235740Y6109D01*
G01X235789Y6102D01*
G01X235840Y6097D01*
G01X235890Y6093D01*
G01X235942Y6091D01*
G01X235993Y6090D01*
G01X236045Y6091D01*
G01X236097Y6093D01*
G01X236147Y6097D01*
G01X236197Y6102D01*
G01X236246Y6109D01*
G01X236295Y6117D01*
G01X236342Y6126D01*
G01X236390Y6138D01*
G01X236436Y6151D01*
G01X236481Y6166D01*
G01X236526Y6183D01*
G01X236569Y6201D01*
G01X236612Y6221D01*
G01X236653Y6244D01*
G01X236693Y6268D01*
G01X236733Y6294D01*
G01X236771Y6322D01*
G01X236808Y6352D01*
G01X236844Y6384D01*
G01X236878Y6418D01*
G01X236911Y6454D01*
G01X236943Y6492D01*
G01X236974Y6532D01*
G01X237003Y6575D01*
G01X237031Y6620D01*
G01X237057Y6667D01*
G01X237081Y6716D01*
G01X237104Y6768D01*
G01X237126Y6822D01*
G01X237146Y6879D01*
G01X237163Y6938D01*
G01X237180Y7000D01*
G01X237194Y7064D01*
G01X237207Y7131D01*
G01X237218Y7200D01*
G01X237227Y7272D01*
G01X237234Y7346D01*
G01X237239Y7423D01*
G01X237242Y7504D01*
G01X237243Y7586D01*
G01X237243Y9687D01*
G01X236862Y9687D01*
G01X236862Y7581D01*
G01X236861Y7490D01*
G01X236856Y7404D01*
G01X236849Y7322D01*
G01X236839Y7245D01*
G01X236827Y7171D01*
G01X236811Y7102D01*
G01X236794Y7037D01*
G01X236773Y6976D01*
G01X236751Y6918D01*
G01X236726Y6865D01*
G01X236700Y6815D01*
G01X236671Y6769D01*
G01X236640Y6726D01*
G01X236607Y6687D01*
G01X236572Y6651D01*
G01X236536Y6618D01*
G01X236498Y6588D01*
G01X236458Y6561D01*
G01X236417Y6538D01*
G01X236374Y6517D01*
G01X236331Y6499D01*
G01X236286Y6484D01*
G01X236239Y6471D01*
G01X236192Y6461D01*
G01X236144Y6453D01*
G01X236095Y6448D01*
G01X236044Y6444D01*
G01X235993Y6443D01*
G01X235943Y6444D01*
G01X235893Y6448D01*
G01X235845Y6453D01*
G01X235797Y6461D01*
G01X235750Y6471D01*
G01X235704Y6484D01*
G01X235660Y6499D01*
G01X235617Y6517D01*
G01X235575Y6538D01*
G01X235535Y6561D01*
G01X235496Y6588D01*
G01X235459Y6618D01*
G01X235423Y6651D01*
G01X235390Y6687D01*
G01X235358Y6726D01*
G01X235328Y6769D01*
G01X235300Y6815D01*
G01X235274Y6865D01*
G01X235250Y6918D01*
G01X235228Y6976D01*
G01X235209Y7037D01*
G01X235192Y7102D01*
G01X235177Y7171D01*
G01X235165Y7245D01*
G01X235155Y7322D01*
G01X235148Y7404D01*
G01X235144Y7490D01*
G01X235143Y7581D01*
G01X235143Y9687D01*
G37*

%LPD*%
G36*
G01X225394Y9499D02*
G01X225061Y9499D01*
G01X225018Y8760D01*
G01X224609Y8735D01*
G01X224609Y8437D01*
G01X225003Y8437D01*
G01X225003Y6941D01*
G01X225004Y6878D01*
G01X225006Y6817D01*
G01X225011Y6757D01*
G01X225019Y6700D01*
G01X225027Y6645D01*
G01X225039Y6592D01*
G01X225053Y6541D01*
G01X225068Y6493D01*
G01X225087Y6447D01*
G01X225109Y6403D01*
G01X225132Y6362D01*
G01X225159Y6324D01*
G01X225188Y6288D01*
G01X225221Y6255D01*
G01X225256Y6225D01*
G01X225294Y6197D01*
G01X225336Y6173D01*
G01X225381Y6151D01*
G01X225430Y6133D01*
G01X225481Y6118D01*
G01X225536Y6106D01*
G01X225595Y6098D01*
G01X225658Y6092D01*
G01X225724Y6090D01*
G01X225779Y6092D01*
G01X225836Y6099D01*
G01X225895Y6108D01*
G01X225954Y6120D01*
G01X226014Y6135D01*
G01X226073Y6151D01*
G01X226131Y6169D01*
G01X226187Y6187D01*
G01X226108Y6482D01*
G01X226038Y6457D01*
G01X225960Y6436D01*
G01X225881Y6421D01*
G01X225806Y6416D01*
G01X225731Y6420D01*
G01X225666Y6431D01*
G01X225608Y6451D01*
G01X225559Y6478D01*
G01X225517Y6511D01*
G01X225481Y6552D01*
G01X225453Y6599D01*
G01X225431Y6653D01*
G01X225414Y6712D01*
G01X225403Y6778D01*
G01X225396Y6849D01*
G01X225394Y6926D01*
G01X225394Y8437D01*
G01X226113Y8437D01*
G01X226113Y8760D01*
G01X225394Y8760D01*
G01X225394Y9499D01*
G37*

%LPD*%
G36*
G01X223356Y8827D02*
G01X223296Y8829D01*
G01X223246Y8828D01*
G01X223196Y8823D01*
G01X223147Y8818D01*
G01X223098Y8809D01*
G01X223050Y8799D01*
G01X223002Y8785D01*
G01X222954Y8770D01*
G01X222907Y8752D01*
G01X222861Y8733D01*
G01X222816Y8711D01*
G01X222772Y8686D01*
G01X222728Y8660D01*
G01X222685Y8631D01*
G01X222644Y8601D01*
G01X222604Y8568D01*
G01X222564Y8534D01*
G01X222526Y8497D01*
G01X222490Y8458D01*
G01X222454Y8418D01*
G01X222420Y8375D01*
G01X222388Y8331D01*
G01X222357Y8284D01*
G01X222328Y8236D01*
G01X222301Y8186D01*
G01X222275Y8134D01*
G01X222252Y8080D01*
G01X222230Y8025D01*
G01X222210Y7968D01*
G01X222193Y7909D01*
G01X222177Y7849D01*
G01X222164Y7786D01*
G01X222153Y7723D01*
G01X222144Y7657D01*
G01X222138Y7590D01*
G01X222134Y7522D01*
G01X222133Y7452D01*
G01X222134Y7382D01*
G01X222138Y7313D01*
G01X222144Y7246D01*
G01X222152Y7181D01*
G01X222163Y7117D01*
G01X222176Y7055D01*
G01X222192Y6994D01*
G01X222209Y6936D01*
G01X222229Y6879D01*
G01X222251Y6824D01*
G01X222274Y6771D01*
G01X222300Y6720D01*
G01X222328Y6670D01*
G01X222357Y6622D01*
G01X222389Y6577D01*
G01X222422Y6533D01*
G01X222456Y6491D01*
G01X222493Y6451D01*
G01X222530Y6413D01*
G01X222570Y6377D01*
G01X222611Y6343D01*
G01X222653Y6311D01*
G01X222697Y6281D01*
G01X222742Y6253D01*
G01X222788Y6228D01*
G01X222836Y6205D01*
G01X222885Y6183D01*
G01X222935Y6164D01*
G01X222986Y6147D01*
G01X223037Y6132D01*
G01X223090Y6119D01*
G01X223144Y6109D01*
G01X223199Y6101D01*
G01X223254Y6095D01*
G01X223310Y6091D01*
G01X223367Y6090D01*
G01X223434Y6092D01*
G01X223499Y6096D01*
G01X223561Y6103D01*
G01X223622Y6112D01*
G01X223681Y6123D01*
G01X223737Y6137D01*
G01X223792Y6152D01*
G01X223846Y6170D01*
G01X223897Y6188D01*
G01X223948Y6209D01*
G01X223997Y6231D01*
G01X224044Y6255D01*
G01X224090Y6279D01*
G01X224136Y6304D01*
G01X224180Y6330D01*
G01X224223Y6357D01*
G01X224078Y6616D01*
G01X224030Y6585D01*
G01X223980Y6556D01*
G01X223929Y6529D01*
G01X223878Y6504D01*
G01X223825Y6482D01*
G01X223770Y6462D01*
G01X223715Y6446D01*
G01X223658Y6431D01*
G01X223600Y6420D01*
G01X223540Y6412D01*
G01X223479Y6407D01*
G01X223415Y6405D01*
G01X223351Y6407D01*
G01X223289Y6414D01*
G01X223228Y6423D01*
G01X223170Y6437D01*
G01X223114Y6454D01*
G01X223060Y6475D01*
G01X223007Y6499D01*
G01X222958Y6527D01*
G01X222910Y6558D01*
G01X222866Y6592D01*
G01X222823Y6630D01*
G01X222783Y6671D01*
G01X222745Y6715D01*
G01X222711Y6761D01*
G01X222679Y6811D01*
G01X222649Y6863D01*
G01X222623Y6918D01*
G01X222600Y6975D01*
G01X222579Y7035D01*
G01X222561Y7098D01*
G01X222547Y7163D01*
G01X222536Y7230D01*
G01X222528Y7299D01*
G01X222524Y7371D01*
G01X224304Y7371D01*
G01X224314Y7421D01*
G01X224319Y7479D01*
G01X224322Y7542D01*
G01X224322Y7607D01*
G01X224321Y7676D01*
G01X224318Y7744D01*
G01X224312Y7811D01*
G01X224305Y7875D01*
G01X224295Y7938D01*
G01X224283Y7999D01*
G01X224269Y8058D01*
G01X224253Y8115D01*
G01X224235Y8170D01*
G01X224215Y8224D01*
G01X224193Y8274D01*
G01X224169Y8324D01*
G01X224143Y8371D01*
G01X224115Y8416D01*
G01X224085Y8459D01*
G01X224053Y8499D01*
G01X224019Y8538D01*
G01X223983Y8575D01*
G01X223946Y8609D01*
G01X223907Y8640D01*
G01X223865Y8670D01*
G01X223822Y8696D01*
G01X223777Y8721D01*
G01X223731Y8743D01*
G01X223682Y8763D01*
G01X223632Y8780D01*
G01X223580Y8795D01*
G01X223527Y8807D01*
G01X223472Y8816D01*
G01X223415Y8823D01*
G01X223356Y8827D01*
G37*

%LPC*%
G36*
G01X223364Y8506D02*
G01X223301Y8509D01*
G01X223244Y8506D01*
G01X223187Y8499D01*
G01X223131Y8488D01*
G01X223077Y8472D01*
G01X223024Y8451D01*
G01X222972Y8426D01*
G01X222922Y8397D01*
G01X222874Y8364D01*
G01X222829Y8326D01*
G01X222785Y8284D01*
G01X222744Y8239D01*
G01X222706Y8189D01*
G01X222671Y8136D01*
G01X222638Y8078D01*
G01X222609Y8017D01*
G01X222584Y7952D01*
G01X222561Y7883D01*
G01X222543Y7811D01*
G01X222529Y7734D01*
G01X222519Y7655D01*
G01X223977Y7655D01*
G01X223975Y7737D01*
G01X223969Y7815D01*
G01X223960Y7889D01*
G01X223947Y7958D01*
G01X223931Y8024D01*
G01X223911Y8086D01*
G01X223888Y8143D01*
G01X223861Y8197D01*
G01X223831Y8246D01*
G01X223798Y8291D01*
G01X223762Y8332D01*
G01X223722Y8369D01*
G01X223680Y8401D01*
G01X223634Y8430D01*
G01X223586Y8454D01*
G01X223534Y8473D01*
G01X223480Y8489D01*
G01X223423Y8500D01*
G01X223364Y8506D01*
G37*

%LPD*%
G36*
G01X218005Y8760D02*
G01X217617Y8760D01*
G01X217617Y7104D01*
G01X217618Y7023D01*
G01X217622Y6944D01*
G01X217628Y6869D01*
G01X217637Y6798D01*
G01X217649Y6729D01*
G01X217663Y6665D01*
G01X217680Y6604D01*
G01X217700Y6546D01*
G01X217723Y6491D01*
G01X217748Y6439D01*
G01X217776Y6392D01*
G01X217807Y6347D01*
G01X217841Y6307D01*
G01X217877Y6269D01*
G01X217917Y6236D01*
G01X217959Y6205D01*
G01X218004Y6178D01*
G01X218053Y6155D01*
G01X218104Y6136D01*
G01X218159Y6119D01*
G01X218216Y6107D01*
G01X218276Y6098D01*
G01X218340Y6092D01*
G01X218406Y6090D01*
G01X218474Y6092D01*
G01X218538Y6099D01*
G01X218601Y6110D01*
G01X218661Y6125D01*
G01X218719Y6144D01*
G01X218776Y6167D01*
G01X218831Y6193D01*
G01X218885Y6223D01*
G01X218937Y6256D01*
G01X218988Y6292D01*
G01X219037Y6331D01*
G01X219087Y6373D01*
G01X219134Y6418D01*
G01X219182Y6466D01*
G01X219229Y6516D01*
G01X219275Y6568D01*
G01X219290Y6568D01*
G01X219323Y6154D01*
G01X219646Y6154D01*
G01X219646Y8760D01*
G01X219257Y8760D01*
G01X219257Y6893D01*
G01X219209Y6835D01*
G01X219162Y6781D01*
G01X219116Y6732D01*
G01X219071Y6686D01*
G01X219026Y6645D01*
G01X218983Y6607D01*
G01X218939Y6573D01*
G01X218895Y6543D01*
G01X218851Y6517D01*
G01X218807Y6494D01*
G01X218763Y6475D01*
G01X218717Y6460D01*
G01X218671Y6449D01*
G01X218623Y6440D01*
G01X218574Y6435D01*
G01X218523Y6433D01*
G01X218457Y6436D01*
G01X218395Y6443D01*
G01X218339Y6457D01*
G01X218287Y6475D01*
G01X218240Y6499D01*
G01X218198Y6529D01*
G01X218160Y6564D01*
G01X218126Y6605D01*
G01X218097Y6652D01*
G01X218072Y6705D01*
G01X218051Y6764D01*
G01X218034Y6829D01*
G01X218021Y6900D01*
G01X218012Y6977D01*
G01X218007Y7062D01*
G01X218005Y7152D01*
G01X218005Y8760D01*
G37*

%LPD*%
G36*
G01X266842Y9687D02*
G01X266542Y9687D01*
G01X266495Y9660D01*
G01X266447Y9634D01*
G01X266396Y9610D01*
G01X266343Y9586D01*
G01X266288Y9565D01*
G01X266230Y9544D01*
G01X266170Y9525D01*
G01X266107Y9507D01*
G01X266042Y9490D01*
G01X265974Y9474D01*
G01X265902Y9459D01*
G01X265828Y9446D01*
G01X265828Y9189D01*
G01X266451Y9189D01*
G01X266451Y6482D01*
G01X265658Y6482D01*
G01X265658Y6154D01*
G01X267561Y6154D01*
G01X267561Y6482D01*
G01X266842Y6482D01*
G01X266842Y9687D01*
G37*

%LPD*%
G36*
G01X259283Y8760D02*
G01X258874Y8760D01*
G01X259824Y6154D01*
G01X260281Y6154D01*
G01X261213Y8760D01*
G01X260827Y8760D01*
G01X260311Y7244D01*
G01X260292Y7180D01*
G01X260271Y7116D01*
G01X260230Y6987D01*
G01X260208Y6922D01*
G01X260166Y6792D01*
G01X260124Y6664D01*
G01X260084Y6538D01*
G01X260065Y6477D01*
G01X260045Y6477D01*
G01X260024Y6538D01*
G01X260004Y6601D01*
G01X259983Y6664D01*
G01X259942Y6792D01*
G01X259879Y6987D01*
G01X259818Y7180D01*
G01X259798Y7244D01*
G01X259283Y8760D01*
G37*

%LPD*%
G36*
G01X255953Y9994D02*
G01X255572Y9994D01*
G01X255572Y6154D01*
G01X255953Y6154D01*
G01X255953Y6845D01*
G01X256466Y7442D01*
G01X257251Y6154D01*
G01X257680Y6154D01*
G01X256692Y7719D01*
G01X257561Y8760D01*
G01X257126Y8760D01*
G01X255968Y7338D01*
G01X255953Y7338D01*
G01X255953Y9994D01*
G37*

%LPD*%
G36*
G01X242503Y8760D02*
G01X242079Y8760D01*
G01X242874Y7515D01*
G01X242011Y6154D01*
G01X242425Y6154D01*
G01X242798Y6786D01*
G01X242866Y6906D01*
G01X242933Y7025D01*
G01X242967Y7084D01*
G01X243037Y7200D01*
G01X243072Y7259D01*
G01X243098Y7259D01*
G01X243169Y7142D01*
G01X243205Y7084D01*
G01X243241Y7025D01*
G01X243277Y6965D01*
G01X243313Y6906D01*
G01X243348Y6846D01*
G01X243382Y6786D01*
G01X243781Y6154D01*
G01X244210Y6154D01*
G01X243352Y7477D01*
G01X244144Y8760D01*
G01X243738Y8760D01*
G01X243395Y8166D01*
G01X243365Y8111D01*
G01X243305Y8003D01*
G01X243275Y7948D01*
G01X243246Y7894D01*
G01X243185Y7786D01*
G01X243154Y7731D01*
G01X243136Y7731D01*
G01X243102Y7786D01*
G01X243067Y7840D01*
G01X243033Y7894D01*
G01X243000Y7948D01*
G01X242966Y8003D01*
G01X242933Y8057D01*
G01X242869Y8166D01*
G01X242503Y8760D01*
G37*

%LPD*%
G36*
G01X241490Y8760D02*
G01X241099Y8760D01*
G01X241099Y6154D01*
G01X241490Y6154D01*
G01X241490Y8760D01*
G37*

%LPD*%
G36*
G01X239497Y8827D02*
G01X239430Y8829D01*
G01X239364Y8826D01*
G01X239300Y8819D01*
G01X239238Y8808D01*
G01X239177Y8793D01*
G01X239118Y8774D01*
G01X239061Y8751D01*
G01X239005Y8725D01*
G01X238951Y8696D01*
G01X238898Y8664D01*
G01X238845Y8629D01*
G01X238795Y8592D01*
G01X238744Y8553D01*
G01X238695Y8512D01*
G01X238647Y8469D01*
G01X238598Y8425D01*
G01X238551Y8379D01*
G01X238536Y8379D01*
G01X238498Y8760D01*
G01X238178Y8760D01*
G01X238178Y6154D01*
G01X238569Y6154D01*
G01X238569Y8061D01*
G01X238619Y8112D01*
G01X238668Y8160D01*
G01X238715Y8204D01*
G01X238762Y8245D01*
G01X238807Y8283D01*
G01X238851Y8319D01*
G01X238896Y8350D01*
G01X238940Y8378D01*
G01X238985Y8403D01*
G01X239029Y8425D01*
G01X239074Y8443D01*
G01X239120Y8459D01*
G01X239166Y8470D01*
G01X239214Y8479D01*
G01X239262Y8484D01*
G01X239313Y8486D01*
G01X239378Y8483D01*
G01X239439Y8475D01*
G01X239495Y8462D01*
G01X239546Y8443D01*
G01X239593Y8419D01*
G01X239635Y8389D01*
G01X239673Y8353D01*
G01X239706Y8311D01*
G01X239735Y8264D01*
G01X239761Y8211D01*
G01X239782Y8151D01*
G01X239799Y8086D01*
G01X239812Y8014D01*
G01X239822Y7936D01*
G01X239827Y7852D01*
G01X239829Y7762D01*
G01X239829Y6154D01*
G01X240225Y6154D01*
G01X240225Y7810D01*
G01X240224Y7892D01*
G01X240220Y7970D01*
G01X240213Y8045D01*
G01X240204Y8116D01*
G01X240192Y8185D01*
G01X240177Y8250D01*
G01X240160Y8311D01*
G01X240140Y8370D01*
G01X240117Y8425D01*
G01X240091Y8476D01*
G01X240063Y8524D01*
G01X240032Y8569D01*
G01X239997Y8610D01*
G01X239960Y8648D01*
G01X239920Y8682D01*
G01X239878Y8712D01*
G01X239832Y8740D01*
G01X239784Y8763D01*
G01X239732Y8783D01*
G01X239677Y8799D01*
G01X239620Y8812D01*
G01X239560Y8821D01*
G01X239497Y8827D01*
G37*

%LPD*%
G36*
G01X230009Y8760D02*
G01X229618Y8760D01*
G01X229618Y6154D01*
G01X230009Y6154D01*
G01X230009Y8760D01*
G37*

%LPD*%
G36*
G01X227103Y9994D02*
G01X226712Y9994D01*
G01X226712Y6154D01*
G01X227103Y6154D01*
G01X227103Y8061D01*
G01X227153Y8112D01*
G01X227201Y8160D01*
G01X227248Y8204D01*
G01X227294Y8245D01*
G01X227340Y8283D01*
G01X227384Y8319D01*
G01X227429Y8350D01*
G01X227473Y8378D01*
G01X227517Y8403D01*
G01X227562Y8425D01*
G01X227606Y8443D01*
G01X227653Y8459D01*
G01X227699Y8470D01*
G01X227747Y8479D01*
G01X227797Y8484D01*
G01X227848Y8486D01*
G01X227913Y8483D01*
G01X227973Y8475D01*
G01X228029Y8462D01*
G01X228080Y8443D01*
G01X228127Y8419D01*
G01X228169Y8389D01*
G01X228207Y8353D01*
G01X228241Y8311D01*
G01X228270Y8264D01*
G01X228295Y8211D01*
G01X228317Y8151D01*
G01X228333Y8086D01*
G01X228347Y8014D01*
G01X228356Y7936D01*
G01X228361Y7852D01*
G01X228363Y7762D01*
G01X228363Y6154D01*
G01X228760Y6154D01*
G01X228760Y7810D01*
G01X228758Y7892D01*
G01X228754Y7970D01*
G01X228748Y8045D01*
G01X228738Y8116D01*
G01X228727Y8185D01*
G01X228712Y8250D01*
G01X228694Y8311D01*
G01X228674Y8370D01*
G01X228651Y8425D01*
G01X228625Y8476D01*
G01X228597Y8524D01*
G01X228565Y8569D01*
G01X228531Y8610D01*
G01X228494Y8648D01*
G01X228454Y8682D01*
G01X228412Y8712D01*
G01X228366Y8740D01*
G01X228317Y8763D01*
G01X228265Y8783D01*
G01X228211Y8799D01*
G01X228153Y8812D01*
G01X228093Y8821D01*
G01X228029Y8827D01*
G01X227962Y8829D01*
G01X227896Y8826D01*
G01X227832Y8819D01*
G01X227771Y8808D01*
G01X227711Y8793D01*
G01X227653Y8774D01*
G01X227596Y8751D01*
G01X227540Y8726D01*
G01X227486Y8697D01*
G01X227433Y8665D01*
G01X227381Y8631D01*
G01X227331Y8594D01*
G01X227281Y8555D01*
G01X227232Y8515D01*
G01X227183Y8472D01*
G01X227135Y8429D01*
G01X227088Y8384D01*
G01X227103Y8930D01*
G01X227103Y9994D01*
G37*

%LPD*%
G36*
G01X221747Y8825D02*
G01X221670Y8829D01*
G01X221616Y8826D01*
G01X221561Y8818D01*
G01X221508Y8806D01*
G01X221455Y8789D01*
G01X221404Y8768D01*
G01X221354Y8742D01*
G01X221305Y8712D01*
G01X221257Y8678D01*
G01X221211Y8641D01*
G01X221165Y8599D01*
G01X221122Y8554D01*
G01X221080Y8506D01*
G01X221040Y8455D01*
G01X221002Y8400D01*
G01X220966Y8342D01*
G01X220931Y8282D01*
G01X220916Y8282D01*
G01X220878Y8760D01*
G01X220560Y8760D01*
G01X220560Y6154D01*
G01X220949Y6154D01*
G01X220949Y7853D01*
G01X220984Y7934D01*
G01X221021Y8010D01*
G01X221059Y8078D01*
G01X221099Y8140D01*
G01X221140Y8197D01*
G01X221182Y8247D01*
G01X221225Y8292D01*
G01X221269Y8331D01*
G01X221313Y8365D01*
G01X221358Y8394D01*
G01X221403Y8418D01*
G01X221447Y8437D01*
G01X221491Y8452D01*
G01X221535Y8462D01*
G01X221577Y8468D01*
G01X221620Y8470D01*
G01X221689Y8467D01*
G01X221749Y8459D01*
G01X221806Y8446D01*
G01X221866Y8427D01*
G01X221945Y8770D01*
G01X221881Y8798D01*
G01X221816Y8815D01*
G01X221747Y8825D01*
G37*

%LPD*%
G36*
G01X217065Y8760D02*
G01X215308Y8760D01*
G01X215308Y8437D01*
G01X216562Y8437D01*
G01X215153Y6367D01*
G01X215153Y6154D01*
G01X217109Y6154D01*
G01X217109Y6477D01*
G01X215651Y6477D01*
G01X217065Y8552D01*
G01X217065Y8760D01*
G37*

%LPD*%
G36*
G01X213758Y9687D02*
G01X213321Y9687D01*
G01X212115Y6154D01*
G01X212514Y6154D01*
G01X212877Y7269D01*
G01X214193Y7269D01*
G01X214546Y6154D01*
G01X214970Y6154D01*
G01X213758Y9687D01*
G37*

%LPC*%
G36*
G01X213542Y9354D02*
G01X213522Y9354D01*
G01X213505Y9291D01*
G01X213470Y9167D01*
G01X213436Y9045D01*
G01X213418Y8986D01*
G01X213401Y8926D01*
G01X213365Y8807D01*
G01X213330Y8689D01*
G01X213311Y8630D01*
G01X213293Y8571D01*
G01X213256Y8454D01*
G01X213238Y8395D01*
G01X213200Y8277D01*
G01X213161Y8158D01*
G01X212979Y7581D01*
G01X214094Y7581D01*
G01X213908Y8158D01*
G01X213888Y8218D01*
G01X213869Y8277D01*
G01X213849Y8336D01*
G01X213830Y8396D01*
G01X213792Y8514D01*
G01X213737Y8690D01*
G01X213720Y8749D01*
G01X213666Y8928D01*
G01X213631Y9047D01*
G01X213614Y9108D01*
G01X213578Y9230D01*
G01X213542Y9354D01*
G37*

%LPD*%
G36*
G01X232976Y7655D02*
G01X231757Y7655D01*
G01X231757Y7345D01*
G01X232976Y7345D01*
G01X232976Y7655D01*
G37*

%LPD*%
G36*
G01X241354Y9850D02*
G01X241297Y9855D01*
G01X241238Y9850D01*
G01X241183Y9836D01*
G01X241134Y9814D01*
G01X241093Y9783D01*
G01X241059Y9744D01*
G01X241034Y9698D01*
G01X241018Y9645D01*
G01X241012Y9585D01*
G01X241018Y9530D01*
G01X241034Y9478D01*
G01X241059Y9433D01*
G01X241093Y9394D01*
G01X241134Y9362D01*
G01X241183Y9339D01*
G01X241238Y9324D01*
G01X241297Y9319D01*
G01X241354Y9324D01*
G01X241407Y9339D01*
G01X241455Y9362D01*
G01X241497Y9394D01*
G01X241532Y9433D01*
G01X241559Y9478D01*
G01X241575Y9530D01*
G01X241581Y9585D01*
G01X241575Y9645D01*
G01X241559Y9698D01*
G01X241532Y9744D01*
G01X241497Y9783D01*
G01X241455Y9814D01*
G01X241407Y9836D01*
G01X241354Y9850D01*
G37*

%LPD*%
G36*
G01X229873Y9850D02*
G01X229816Y9855D01*
G01X229757Y9850D01*
G01X229702Y9836D01*
G01X229654Y9814D01*
G01X229612Y9783D01*
G01X229578Y9744D01*
G01X229553Y9698D01*
G01X229537Y9645D01*
G01X229532Y9585D01*
G01X229537Y9530D01*
G01X229553Y9478D01*
G01X229578Y9433D01*
G01X229612Y9394D01*
G01X229654Y9362D01*
G01X229702Y9339D01*
G01X229757Y9324D01*
G01X229816Y9319D01*
G01X229873Y9324D01*
G01X229926Y9339D01*
G01X229974Y9362D01*
G01X230016Y9394D01*
G01X230051Y9433D01*
G01X230078Y9478D01*
G01X230095Y9530D01*
G01X230101Y9585D01*
G01X230095Y9645D01*
G01X230078Y9698D01*
G01X230051Y9744D01*
G01X230016Y9783D01*
G01X229974Y9814D01*
G01X229926Y9836D01*
G01X229873Y9850D01*
G37*

%LPD*%
G54D27*
G01X103100Y42288D02*
G01X103100Y41198D01*
G01X103100Y42288D02*
G01X103463Y42288D01*
G01X103620Y42237D01*
G01X103722Y42133D01*
G01X103775Y42029D01*
G01X103826Y41874D01*
G01X103826Y41615D01*
G01X103775Y41457D01*
G01X103722Y41353D01*
G01X103620Y41249D01*
G01X103463Y41198D01*
G01X103100Y41198D01*
G01X104169Y42288D02*
G01X104169Y41198D01*
G01X105241Y42133D02*
G01X105137Y42237D01*
G01X104979Y42288D01*
G01X104773Y42288D01*
G01X104616Y42237D01*
G01X104512Y42133D01*
G01X104512Y42029D01*
G01X104565Y41925D01*
G01X104616Y41874D01*
G01X104720Y41821D01*
G01X105032Y41716D01*
G01X105137Y41666D01*
G01X105187Y41615D01*
G01X105241Y41511D01*
G01X105241Y41353D01*
G01X105137Y41249D01*
G01X104979Y41198D01*
G01X104773Y41198D01*
G01X104616Y41249D01*
G01X104512Y41353D01*
G01X105584Y42288D02*
G01X105584Y41198D01*
G01X105584Y42288D02*
G01X106051Y42288D01*
G01X106206Y42237D01*
G01X106259Y42186D01*
G01X106310Y42082D01*
G01X106310Y41925D01*
G01X106259Y41821D01*
G01X106206Y41770D01*
G01X106051Y41716D01*
G01X105584Y41716D01*
G01X106653Y42082D02*
G01X106757Y42133D01*
G01X106912Y42288D01*
G01X106912Y41198D01*
G01X168099Y42288D02*
G01X168099Y41198D01*
G01X168099Y42288D02*
G01X168463Y42288D01*
G01X168620Y42237D01*
G01X168722Y42133D01*
G01X168775Y42029D01*
G01X168826Y41874D01*
G01X168826Y41615D01*
G01X168775Y41457D01*
G01X168722Y41353D01*
G01X168620Y41249D01*
G01X168463Y41198D01*
G01X168099Y41198D01*
G01X169169Y42288D02*
G01X169169Y41198D01*
G01X170241Y42133D02*
G01X170137Y42237D01*
G01X169979Y42288D01*
G01X169773Y42288D01*
G01X169616Y42237D01*
G01X169512Y42133D01*
G01X169512Y42029D01*
G01X169565Y41925D01*
G01X169616Y41874D01*
G01X169720Y41821D01*
G01X170032Y41716D01*
G01X170137Y41666D01*
G01X170187Y41615D01*
G01X170241Y41511D01*
G01X170241Y41353D01*
G01X170137Y41249D01*
G01X169979Y41198D01*
G01X169773Y41198D01*
G01X169616Y41249D01*
G01X169512Y41353D01*
G01X170584Y42288D02*
G01X170584Y41198D01*
G01X170584Y42288D02*
G01X171051Y42288D01*
G01X171206Y42237D01*
G01X171259Y42186D01*
G01X171310Y42082D01*
G01X171310Y41925D01*
G01X171259Y41821D01*
G01X171206Y41770D01*
G01X171051Y41716D01*
G01X170584Y41716D01*
G01X171706Y42029D02*
G01X171706Y42082D01*
G01X171757Y42186D01*
G01X171808Y42237D01*
G01X171912Y42288D01*
G01X172120Y42288D01*
G01X172224Y42237D01*
G01X172278Y42186D01*
G01X172329Y42082D01*
G01X172329Y41978D01*
G01X172278Y41874D01*
G01X172174Y41716D01*
G01X171653Y41198D01*
G01X172379Y41198D01*
G01X38100Y42288D02*
G01X38100Y41198D01*
G01X38100Y42288D02*
G01X38463Y42288D01*
G01X38620Y42237D01*
G01X38722Y42133D01*
G01X38775Y42029D01*
G01X38826Y41874D01*
G01X38826Y41615D01*
G01X38775Y41457D01*
G01X38722Y41353D01*
G01X38620Y41249D01*
G01X38463Y41198D01*
G01X38100Y41198D01*
G01X39169Y42288D02*
G01X39169Y41198D01*
G01X40241Y42133D02*
G01X40137Y42237D01*
G01X39979Y42288D01*
G01X39773Y42288D01*
G01X39616Y42237D01*
G01X39512Y42133D01*
G01X39512Y42029D01*
G01X39565Y41925D01*
G01X39616Y41874D01*
G01X39720Y41821D01*
G01X40032Y41716D01*
G01X40137Y41666D01*
G01X40187Y41615D01*
G01X40241Y41511D01*
G01X40241Y41353D01*
G01X40137Y41249D01*
G01X39979Y41198D01*
G01X39773Y41198D01*
G01X39616Y41249D01*
G01X39512Y41353D01*
G01X40584Y42288D02*
G01X40584Y41198D01*
G01X40584Y42288D02*
G01X41051Y42288D01*
G01X41206Y42237D01*
G01X41259Y42186D01*
G01X41310Y42082D01*
G01X41310Y41925D01*
G01X41259Y41821D01*
G01X41206Y41770D01*
G01X41051Y41716D01*
G01X40584Y41716D01*
G01X41965Y42288D02*
G01X41808Y42237D01*
G01X41706Y42082D01*
G01X41653Y41821D01*
G01X41653Y41666D01*
G01X41706Y41407D01*
G01X41808Y41249D01*
G01X41965Y41198D01*
G01X42070Y41198D01*
G01X42224Y41249D01*
G01X42329Y41407D01*
G01X42379Y41666D01*
G01X42379Y41821D01*
G01X42329Y42082D01*
G01X42224Y42237D01*
G01X42070Y42288D01*
G01X41965Y42288D01*
G01X71349Y8742D02*
G01X71349Y7965D01*
G01X71400Y7807D01*
G01X71504Y7703D01*
G01X71662Y7652D01*
G01X71766Y7652D01*
G01X71921Y7703D01*
G01X72025Y7807D01*
G01X72076Y7965D01*
G01X72076Y8742D01*
G01X72472Y8483D02*
G01X72472Y8536D01*
G01X72523Y8640D01*
G01X72576Y8691D01*
G01X72680Y8742D01*
G01X72886Y8742D01*
G01X72990Y8691D01*
G01X73044Y8640D01*
G01X73094Y8536D01*
G01X73094Y8432D01*
G01X73044Y8328D01*
G01X72939Y8171D01*
G01X72419Y7652D01*
G01X73148Y7652D01*
G01X201301Y8742D02*
G01X201301Y7965D01*
G01X201352Y7807D01*
G01X201456Y7703D01*
G01X201614Y7652D01*
G01X201718Y7652D01*
G01X201873Y7703D01*
G01X201977Y7807D01*
G01X202028Y7965D01*
G01X202028Y8742D01*
G01X202475Y8742D02*
G01X203046Y8742D01*
G01X202737Y8328D01*
G01X202892Y8328D01*
G01X202996Y8275D01*
G01X203046Y8224D01*
G01X203100Y8069D01*
G01X203100Y7965D01*
G01X203046Y7807D01*
G01X202942Y7703D01*
G01X202787Y7652D01*
G01X202632Y7652D01*
G01X202475Y7703D01*
G01X202424Y7757D01*
G01X202371Y7861D01*
G01X233099Y42288D02*
G01X233099Y41198D01*
G01X233099Y42288D02*
G01X233463Y42288D01*
G01X233620Y42237D01*
G01X233722Y42133D01*
G01X233775Y42029D01*
G01X233826Y41874D01*
G01X233826Y41615D01*
G01X233775Y41457D01*
G01X233722Y41353D01*
G01X233620Y41249D01*
G01X233463Y41198D01*
G01X233099Y41198D01*
G01X234169Y42288D02*
G01X234169Y41198D01*
G01X235241Y42133D02*
G01X235137Y42237D01*
G01X234979Y42288D01*
G01X234773Y42288D01*
G01X234616Y42237D01*
G01X234512Y42133D01*
G01X234512Y42029D01*
G01X234565Y41925D01*
G01X234616Y41874D01*
G01X234720Y41821D01*
G01X235032Y41716D01*
G01X235137Y41666D01*
G01X235187Y41615D01*
G01X235241Y41511D01*
G01X235241Y41353D01*
G01X235137Y41249D01*
G01X234979Y41198D01*
G01X234773Y41198D01*
G01X234616Y41249D01*
G01X234512Y41353D01*
G01X235584Y42288D02*
G01X235584Y41198D01*
G01X235584Y42288D02*
G01X236051Y42288D01*
G01X236206Y42237D01*
G01X236259Y42186D01*
G01X236310Y42082D01*
G01X236310Y41925D01*
G01X236259Y41821D01*
G01X236206Y41770D01*
G01X236051Y41716D01*
G01X235584Y41716D01*
G01X236757Y42288D02*
G01X237329Y42288D01*
G01X237016Y41874D01*
G01X237174Y41874D01*
G01X237278Y41821D01*
G01X237329Y41770D01*
G01X237379Y41615D01*
G01X237379Y41511D01*
G01X237329Y41353D01*
G01X237224Y41249D01*
G01X237070Y41198D01*
G01X236912Y41198D01*
G01X236757Y41249D01*
G01X236706Y41302D01*
G01X236653Y41407D01*
G01X89565Y6964D02*
G01X90655Y6964D01*
G01X89565Y6964D02*
G01X89565Y7432D01*
G01X89616Y7586D01*
G01X89667Y7640D01*
G01X89771Y7691D01*
G01X89875Y7691D01*
G01X89980Y7640D01*
G01X90033Y7586D01*
G01X90084Y7432D01*
G01X90084Y6964D01*
G01X90084Y7327D02*
G01X90655Y7691D01*
G01X89825Y8087D02*
G01X89771Y8087D01*
G01X89667Y8138D01*
G01X89616Y8191D01*
G01X89565Y8295D01*
G01X89565Y8501D01*
G01X89616Y8605D01*
G01X89667Y8658D01*
G01X89771Y8709D01*
G01X89875Y8709D01*
G01X89980Y8658D01*
G01X90137Y8554D01*
G01X90655Y8034D01*
G01X90655Y8763D01*
G01X86614Y7091D02*
G01X87703Y7091D01*
G01X86614Y7091D02*
G01X86614Y7559D01*
G01X86664Y7713D01*
G01X86715Y7767D01*
G01X86819Y7818D01*
G01X86923Y7818D01*
G01X87028Y7767D01*
G01X87081Y7713D01*
G01X87132Y7559D01*
G01X87132Y7091D01*
G01X87132Y7454D02*
G01X87703Y7818D01*
G01X86614Y8265D02*
G01X86614Y8836D01*
G01X87028Y8526D01*
G01X87028Y8681D01*
G01X87081Y8785D01*
G01X87132Y8836D01*
G01X87287Y8890D01*
G01X87391Y8890D01*
G01X87548Y8836D01*
G01X87652Y8732D01*
G01X87703Y8577D01*
G01X87703Y8422D01*
G01X87652Y8265D01*
G01X87599Y8214D01*
G01X87495Y8161D01*
G01X83534Y7167D02*
G01X84624Y7167D01*
G01X83534Y7167D02*
G01X83534Y7635D01*
G01X83585Y7790D01*
G01X83636Y7843D01*
G01X83740Y7894D01*
G01X83844Y7894D01*
G01X83949Y7843D01*
G01X84002Y7790D01*
G01X84053Y7635D01*
G01X84053Y7167D01*
G01X84053Y7531D02*
G01X84624Y7894D01*
G01X83534Y8757D02*
G01X84261Y8237D01*
G01X84261Y9017D01*
G01X83534Y8757D02*
G01X84624Y8757D01*
G01X104582Y7218D02*
G01X105672Y7218D01*
G01X104582Y7218D02*
G01X104582Y7686D01*
G01X104633Y7840D01*
G01X104684Y7894D01*
G01X104788Y7945D01*
G01X104892Y7945D01*
G01X104996Y7894D01*
G01X105050Y7840D01*
G01X105101Y7686D01*
G01X105101Y7218D01*
G01X105101Y7581D02*
G01X105672Y7945D01*
G01X104582Y8912D02*
G01X104582Y8392D01*
G01X105050Y8341D01*
G01X104996Y8392D01*
G01X104946Y8549D01*
G01X104946Y8704D01*
G01X104996Y8859D01*
G01X105101Y8963D01*
G01X105256Y9017D01*
G01X105360Y9017D01*
G01X105517Y8963D01*
G01X105621Y8859D01*
G01X105672Y8704D01*
G01X105672Y8549D01*
G01X105621Y8392D01*
G01X105568Y8341D01*
G01X105464Y8288D01*
G01X101610Y7151D02*
G01X102700Y7151D01*
G01X101610Y7151D02*
G01X101610Y7619D01*
G01X101661Y7776D01*
G01X101712Y7827D01*
G01X101816Y7880D01*
G01X101920Y7880D01*
G01X102024Y7827D01*
G01X102078Y7776D01*
G01X102128Y7619D01*
G01X102128Y7151D01*
G01X102128Y7517D02*
G01X102700Y7880D01*
G01X101765Y8845D02*
G01X101661Y8795D01*
G01X101610Y8637D01*
G01X101610Y8533D01*
G01X101661Y8378D01*
G01X101816Y8274D01*
G01X102078Y8223D01*
G01X102337Y8223D01*
G01X102545Y8274D01*
G01X102649Y8378D01*
G01X102700Y8533D01*
G01X102700Y8586D01*
G01X102649Y8741D01*
G01X102545Y8845D01*
G01X102387Y8899D01*
G01X102337Y8899D01*
G01X102182Y8845D01*
G01X102078Y8741D01*
G01X102024Y8586D01*
G01X102024Y8533D01*
G01X102078Y8378D01*
G01X102182Y8274D01*
G01X102337Y8223D01*
G01X98678Y7091D02*
G01X99768Y7091D01*
G01X98678Y7091D02*
G01X98678Y7559D01*
G01X98729Y7713D01*
G01X98780Y7767D01*
G01X98884Y7818D01*
G01X98988Y7818D01*
G01X99092Y7767D01*
G01X99146Y7713D01*
G01X99197Y7559D01*
G01X99197Y7091D01*
G01X99197Y7454D02*
G01X99768Y7818D01*
G01X98678Y8890D02*
G01X99768Y8369D01*
G01X98678Y8161D02*
G01X98678Y8890D01*
G01X95599Y6964D02*
G01X96689Y6964D01*
G01X95599Y6964D02*
G01X95599Y7432D01*
G01X95650Y7586D01*
G01X95701Y7640D01*
G01X95805Y7691D01*
G01X95909Y7691D01*
G01X96013Y7640D01*
G01X96067Y7586D01*
G01X96118Y7432D01*
G01X96118Y6964D01*
G01X96118Y7327D02*
G01X96689Y7691D01*
G01X95599Y8295D02*
G01X95650Y8138D01*
G01X95754Y8087D01*
G01X95859Y8087D01*
G01X95963Y8138D01*
G01X96013Y8242D01*
G01X96067Y8450D01*
G01X96118Y8605D01*
G01X96222Y8709D01*
G01X96326Y8763D01*
G01X96481Y8763D01*
G01X96585Y8709D01*
G01X96638Y8658D01*
G01X96689Y8501D01*
G01X96689Y8295D01*
G01X96638Y8138D01*
G01X96585Y8087D01*
G01X96481Y8034D01*
G01X96326Y8034D01*
G01X96222Y8087D01*
G01X96118Y8191D01*
G01X96067Y8346D01*
G01X96013Y8554D01*
G01X95963Y8658D01*
G01X95859Y8709D01*
G01X95754Y8709D01*
G01X95650Y8658D01*
G01X95599Y8501D01*
G01X95599Y8295D01*
G01X92647Y7144D02*
G01X93737Y7144D01*
G01X92647Y7144D02*
G01X92647Y7612D01*
G01X92698Y7767D01*
G01X92749Y7820D01*
G01X92853Y7871D01*
G01X92957Y7871D01*
G01X93062Y7820D01*
G01X93115Y7767D01*
G01X93166Y7612D01*
G01X93166Y7144D01*
G01X93166Y7508D02*
G01X93737Y7871D01*
G01X93011Y8889D02*
G01X93166Y8839D01*
G01X93270Y8735D01*
G01X93321Y8580D01*
G01X93321Y8526D01*
G01X93270Y8371D01*
G01X93166Y8267D01*
G01X93011Y8214D01*
G01X92957Y8214D01*
G01X92802Y8267D01*
G01X92698Y8371D01*
G01X92647Y8526D01*
G01X92647Y8580D01*
G01X92698Y8735D01*
G01X92802Y8839D01*
G01X93011Y8889D01*
G01X93270Y8889D01*
G01X93529Y8839D01*
G01X93686Y8735D01*
G01X93737Y8580D01*
G01X93737Y8475D01*
G01X93686Y8318D01*
G01X93582Y8267D01*
G01X135636Y8382D02*
G01X135636Y7602D01*
G01X135686Y7447D01*
G01X135790Y7343D01*
G01X135948Y7289D01*
G01X136052Y7289D01*
G01X136207Y7343D01*
G01X136311Y7447D01*
G01X136362Y7602D01*
G01X136362Y8382D01*
G01X137226Y8382D02*
G01X136705Y7653D01*
G01X137485Y7653D01*
G01X137226Y8382D02*
G01X137226Y7289D01*
G01X157607Y8127D02*
G01X158333Y7038D01*
G01X158333Y8127D02*
G01X157607Y7038D01*
G01X158729Y7868D02*
G01X158729Y7922D01*
G01X158780Y8026D01*
G01X158833Y8077D01*
G01X158937Y8127D01*
G01X159143Y8127D01*
G01X159247Y8077D01*
G01X159301Y8026D01*
G01X159351Y7922D01*
G01X159351Y7818D01*
G01X159301Y7713D01*
G01X159197Y7556D01*
G01X158676Y7038D01*
G01X159405Y7038D01*
G01X164990Y9900D02*
G01X164937Y10005D01*
G01X164833Y10109D01*
G01X164731Y10160D01*
G01X164523Y10160D01*
G01X164419Y10109D01*
G01X164315Y10005D01*
G01X164261Y9900D01*
G01X164211Y9746D01*
G01X164211Y9486D01*
G01X164261Y9329D01*
G01X164315Y9225D01*
G01X164419Y9121D01*
G01X164523Y9070D01*
G01X164731Y9070D01*
G01X164833Y9121D01*
G01X164937Y9225D01*
G01X164990Y9329D01*
G01X165333Y9954D02*
G01X165437Y10005D01*
G01X165592Y10160D01*
G01X165592Y9070D01*
G01X164736Y5074D02*
G01X164683Y5179D01*
G01X164579Y5283D01*
G01X164477Y5334D01*
G01X164269Y5334D01*
G01X164165Y5283D01*
G01X164061Y5179D01*
G01X164007Y5074D01*
G01X163957Y4919D01*
G01X163957Y4660D01*
G01X164007Y4503D01*
G01X164061Y4399D01*
G01X164165Y4295D01*
G01X164269Y4244D01*
G01X164477Y4244D01*
G01X164579Y4295D01*
G01X164683Y4399D01*
G01X164736Y4503D01*
G01X165701Y5334D02*
G01X165183Y5334D01*
G01X165130Y4866D01*
G01X165183Y4919D01*
G01X165338Y4970D01*
G01X165493Y4970D01*
G01X165651Y4919D01*
G01X165755Y4815D01*
G01X165806Y4660D01*
G01X165806Y4556D01*
G01X165755Y4399D01*
G01X165651Y4295D01*
G01X165493Y4244D01*
G01X165338Y4244D01*
G01X165183Y4295D01*
G01X165130Y4348D01*
G01X165079Y4452D01*
G01X110998Y6616D02*
G01X112087Y6616D01*
G01X110998Y6616D02*
G01X110998Y7084D01*
G01X111048Y7239D01*
G01X111099Y7292D01*
G01X111203Y7343D01*
G01X111307Y7343D01*
G01X111412Y7292D01*
G01X111465Y7239D01*
G01X111516Y7084D01*
G01X111516Y6616D01*
G01X111516Y6979D02*
G01X112087Y7343D01*
G01X111203Y7686D02*
G01X111152Y7790D01*
G01X110998Y7947D01*
G01X112087Y7947D01*
G01X110998Y8600D02*
G01X111048Y8445D01*
G01X111203Y8341D01*
G01X111465Y8290D01*
G01X111620Y8290D01*
G01X111879Y8341D01*
G01X112036Y8445D01*
G01X112087Y8600D01*
G01X112087Y8704D01*
G01X112036Y8862D01*
G01X111879Y8966D01*
G01X111620Y9017D01*
G01X111465Y9017D01*
G01X111203Y8966D01*
G01X111048Y8862D01*
G01X110998Y8704D01*
G01X110998Y8600D01*
G01X179451Y7874D02*
G01X179451Y6784D01*
G01X179451Y7874D02*
G01X179918Y7874D01*
G01X180073Y7823D01*
G01X180126Y7772D01*
G01X180177Y7668D01*
G01X180177Y7510D01*
G01X180126Y7406D01*
G01X180073Y7355D01*
G01X179918Y7302D01*
G01X179451Y7302D01*
G01X180520Y7668D02*
G01X180624Y7719D01*
G01X180781Y7874D01*
G01X180781Y6784D01*
G01X43053Y9664D02*
G01X43053Y8887D01*
G01X43103Y8729D01*
G01X43207Y8625D01*
G01X43365Y8575D01*
G01X43469Y8575D01*
G01X43624Y8625D01*
G01X43728Y8729D01*
G01X43779Y8887D01*
G01X43779Y9664D01*
G01X44122Y9458D02*
G01X44226Y9509D01*
G01X44383Y9664D01*
G01X44383Y8575D01*
G01X50419Y9410D02*
G01X50419Y8633D01*
G01X50469Y8475D01*
G01X50573Y8371D01*
G01X50731Y8321D01*
G01X50835Y8321D01*
G01X50990Y8371D01*
G01X51094Y8475D01*
G01X51145Y8633D01*
G01X51145Y9410D01*
G01X52113Y9410D02*
G01X51592Y9410D01*
G01X51541Y8943D01*
G01X51592Y8996D01*
G01X51749Y9047D01*
G01X51904Y9047D01*
G01X52059Y8996D01*
G01X52163Y8892D01*
G01X52217Y8737D01*
G01X52217Y8633D01*
G01X52163Y8475D01*
G01X52059Y8371D01*
G01X51904Y8321D01*
G01X51749Y8321D01*
G01X51592Y8371D01*
G01X51541Y8425D01*
G01X51488Y8529D01*
G54D25*
G75*
G01X152763Y9525D02*
G03X152763Y9520I-300J-3D01*
G01*
G54D10*
G75*
G01X153464Y8509D02*
G03X153464Y7239I0J-635D01*
G01*
G54D26*
G75*
G01X153703Y11674D02*
G03X153703Y11671I-150J-1D01*
G01*
G54D10*
G75*
G01X156248Y4126D02*
G03X160744Y4126I2248J0D01*
G01*
G75*
G01X160744Y10426D02*
G03X156248Y10426I-2248J0D01*
G01*
G54D14*
G75*
G01X86717Y20345D02*
G03X86717Y20345I-406J0D01*
G01*
G75*
G01X101703Y20345D02*
G03X101703Y20345I-406J0D01*
G01*
G75*
G01X116715Y20345D02*
G03X116715Y20345I-406J0D01*
G01*
G75*
G01X131701Y20345D02*
G03X131701Y20345I-406J0D01*
G01*
G75*
G01X151717Y20345D02*
G03X151717Y20345I-406J0D01*
G01*
G75*
G01X166703Y20345D02*
G03X166703Y20345I-406J0D01*
G01*
G75*
G01X181714Y20345D02*
G03X181714Y20345I-406J0D01*
G01*
G75*
G01X196700Y20345D02*
G03X196700Y20345I-406J0D01*
G01*
G75*
G01X21717Y20345D02*
G03X21717Y20345I-406J0D01*
G01*
G75*
G01X36703Y20345D02*
G03X36703Y20345I-406J0D01*
G01*
G75*
G01X51714Y20345D02*
G03X51714Y20345I-406J0D01*
G01*
G75*
G01X66700Y20345D02*
G03X66700Y20345I-406J0D01*
G01*
G54D10*
G75*
G01X79744Y9718D02*
G03X79744Y9718I-254J0D01*
G01*
G75*
G01X209744Y9718D02*
G03X209744Y9718I-254J0D01*
G01*
G54D14*
G75*
G01X216717Y20345D02*
G03X216717Y20345I-406J0D01*
G01*
G75*
G01X231703Y20345D02*
G03X231703Y20345I-406J0D01*
G01*
G75*
G01X246715Y20345D02*
G03X246715Y20345I-406J0D01*
G01*
G75*
G01X261701Y20345D02*
G03X261701Y20345I-406J0D01*
G01*
M00*
M02*
