;Layer: Drill PTH
;EasyEDA v6.1.34, Sun, 05 May 2019 19:16:01 GMT
;77ecd07a251a4821b54f13b313e443d2,d2a06957bfed4711b46dd7a2d4eaa8b9,10
;Gerber Generator version 0.2
M48
METRIC,LZ,000.000
;Holesize 1 = 0.701 METRIC
T01C0.701
;Holesize 2 = 0.712 METRIC
T02C0.712
;Holesize 3 = 0.889 METRIC
T03C0.889
;Holesize 4 = 0.900 METRIC
T04C0.900
;Holesize 5 = 0.901 METRIC
T05C0.901
;Holesize 6 = 1.000 METRIC
T06C1.000
%
G05
G90
T01
X+158496Y+004826
X+158496Y+009726
T02
X+079490Y+011750
X+076950Y+011750
X+074410Y+011750
X+071870Y+011750
X+069330Y+011750
X+066790Y+011750
X+064250Y+011750
X+061710Y+011750
X+061710Y+004130
X+064250Y+004130
X+066790Y+004130
X+069330Y+004130
X+071870Y+004130
X+074410Y+004130
X+076950Y+004130
X+079490Y+004130
X+209490Y+011750
X+206950Y+011750
X+204410Y+011750
X+201870Y+011750
X+199330Y+011750
X+196790Y+011750
X+194250Y+011750
X+191710Y+011750
X+191710Y+004130
X+194250Y+004130
X+196790Y+004130
X+199330Y+004130
X+201870Y+004130
X+204410Y+004130
X+206950Y+004130
X+209490Y+004130
X+166141Y+009601
X+163601Y+009601
X+166141Y+004762
X+163601Y+004762
T03
X+186690Y+005207
X+184150Y+005207
X+181610Y+005207
X+179070Y+005207
X+176530Y+005207
X+173990Y+005207
T04
X+096750Y+016941
X+099290Y+016941
X+101830Y+016941
X+104370Y+016941
X+106910Y+016941
X+109450Y+016941
X+109450Y+038938
X+106910Y+038938
X+104370Y+038938
X+101830Y+038938
X+099290Y+038938
X+096750Y+038938
X+161749Y+016941
X+164289Y+016941
X+166829Y+016941
X+169369Y+016941
X+171909Y+016941
X+174449Y+016941
X+174449Y+038938
X+171909Y+038938
X+169369Y+038938
X+166829Y+038938
X+164289Y+038938
X+161749Y+038938
X+031750Y+016941
X+034290Y+016941
X+036830Y+016941
X+039370Y+016941
X+041910Y+016941
X+044450Y+016941
X+044450Y+038938
X+041910Y+038938
X+039370Y+038938
X+036830Y+038938
X+034290Y+038938
X+031750Y+038938
X+226750Y+016941
X+229290Y+016941
X+231830Y+016941
X+234370Y+016941
X+236910Y+016941
X+239450Y+016941
X+239450Y+038938
X+236910Y+038938
X+234370Y+038938
X+231830Y+038938
X+229290Y+038938
X+226750Y+038938
X+090099Y+004130
X+090099Y+011750
X+087099Y+004130
X+087099Y+011750
X+084099Y+004130
X+084099Y+011750
X+105100Y+004130
X+105100Y+011750
X+102100Y+004130
X+102100Y+011750
X+099100Y+004130
X+099100Y+011750
X+096099Y+004130
X+096099Y+011750
X+093100Y+004130
X+093100Y+011750
X+111506Y+004064
X+111506Y+011684
T05
X+119253Y+004064
X+121793Y+004064
X+124333Y+004064
X+126873Y+004064
X+129413Y+004064
X+131953Y+004064
X+134493Y+004064
X+137033Y+004064
X+139573Y+004064
X+142113Y+004064
X+144653Y+004064
X+147193Y+004064
X+149733Y+004064
X+152273Y+004064
X+119253Y+011684
X+121793Y+011684
X+124333Y+011684
X+126873Y+011684
X+129413Y+011684
X+131953Y+011684
X+134493Y+011684
X+137033Y+011684
X+139573Y+011684
X+142113Y+011684
X+144653Y+011684
X+147193Y+011684
X+149733Y+011684
X+152273Y+011684
T06
X+043099Y+007940
X+050099Y+007940
M30
